<svg id="Layer_1" height="512" viewBox="0 0 512 512" width="512" xmlns="http://www.w3.org/2000/svg" data-name="Layer 1"><path d="m300.1 156.473a40.729 40.729 0 1 0 -40.726 40.627 40.723 40.723 0 0 0 40.726-40.627zm-40.726 28.627a28.626 28.626 0 1 1 28.726-28.627 28.71 28.71 0 0 1 -28.726 28.627z"/><path d="m126.963 257.1a28.122 28.122 0 1 0 28.188 28.121 28.186 28.186 0 0 0 -28.188-28.121zm0 44.243a16.122 16.122 0 1 1 16.188-16.122 16.174 16.174 0 0 1 -16.188 16.126z"/><path d="m305.041 309.382a24.1 24.1 0 1 0 24.154 24.1 24.154 24.154 0 0 0 -24.154-24.1zm0 36.2a12.1 12.1 0 1 1 12.154-12.1 12.141 12.141 0 0 1 -12.154 12.099z"/><path d="m433.349 227.315a24.1 24.1 0 1 0 -24.154-24.1 24.154 24.154 0 0 0 24.154 24.1zm0-36.2a12.1 12.1 0 1 1 -12.154 12.1 12.141 12.141 0 0 1 12.154-12.1z"/><path d="m450.841 250.547 15.825-21.092a41.791 41.791 0 0 0 8.542-27.85c-1.425-21.836-19.31-38.943-40.718-38.943s-39.29 17.107-40.718 38.938a39.983 39.983 0 0 0 1.819 14.659l-98.964 1.815 15.273-20.367a66.771 66.771 0 0 0 13.672-44.5 67.663 67.663 0 0 0 -19.571-43.4 64.164 64.164 0 0 0 -90.777 0 67.655 67.655 0 0 0 -19.57 43.39c-1.02 15.251 3.818 31.034 13.666 44.5l13.212 17.609-140.632.927a6 6 0 0 0 -5.638 4.059l-65.939 192.767a6 6 0 0 0 5.677 7.941h480a6 6 0 0 0 5.726-7.791zm-45.1-48.16c.889-13.628 11.883-27.725 28.744-27.725s27.854 14.1 28.744 27.741a29.8 29.8 0 0 1 -6.162 19.844l-22.582 30.1-22.539-30.04a30.609 30.609 0 0 1 -6.2-19.92zm-4.341 25.763c.3.436.6.87.91 1.3l27.381 36.5a6 6 0 0 0 9.6 0l2.679-3.57 6.821 21.807-93.03.021-6.741-55.091zm-182.433-37.591c-8.142-11.133-12.168-24.117-11.335-36.567a55.664 55.664 0 0 1 16.093-35.708 52.165 52.165 0 0 1 73.783 0 55.68 55.68 0 0 1 16.1 35.725 54.789 54.789 0 0 1 -11.298 36.491l-41.693 55.571zm-194.573 218.441 31.17-91.125 35.488-.108 32.506 43.326a6 6 0 0 0 9.6 0l25.9-34.526.319 82.433zm132.63-99.714-28.667 38.208-28.623-38.149c-5.627-7.7-8.412-16.649-7.838-25.219 1.126-17.27 15.073-35.133 36.461-35.133s35.335 17.863 36.463 35.15a37.764 37.764 0 0 1 -7.796 25.143zm94.565 36.814a6 6 0 0 0 -1.788 4.275l.032 58.625h-78.456l-.377-99.389a48.862 48.862 0 0 0 5.8-26.266c-1.695-25.991-22.971-46.352-48.436-46.352s-46.74 20.361-48.435 46.342a48.539 48.539 0 0 0 4.041 22.453l-24.29.074 26.563-77.657 145.259-.953 24.322 32.418a6 6 0 0 0 9.6 0l22.076-29.431 49.459-.907 7.536 61.6a6 6 0 0 0 5.956 5.271l102.094-.023 15.055 48.127-121.885.207a39.978 39.978 0 0 0 1.186-12.642c-1.424-21.838-19.31-38.944-40.718-38.944s-39.294 17.106-40.718 38.934a39.613 39.613 0 0 0 1.244 12.673l-10.818-.161a5.834 5.834 0 0 0 -4.302 1.726zm77.175 6.413-22.582 30.1-22.538-30.039a30.606 30.606 0 0 1 -6.206-19.919c.889-13.629 11.884-27.725 28.744-27.725s27.855 14.1 28.745 27.742a29.815 29.815 0 0 1 -6.163 19.842zm-66.931 56.487-.029-52.537 10.113.15q.975 1.579 2.084 3.1l27.381 36.5a6 6 0 0 0 9.6 0l27.377-36.489q1.173-1.56 2.193-3.2l130.8-.222 16.484 52.698z"/></svg>