<svg width="25" height="31" viewBox="0 0 25 31" fill="none" xmlns="http://www.w3.org/2000/svg">
<path d="M12.5 0.476196C5.60708 0.476196 0 7.24094 0 15.5556C0 23.8702 5.60708 30.6349 12.5 30.6349C19.3929 30.6349 25 23.8702 25 15.5556C25 7.24094 19.3929 0.476196 12.5 0.476196ZM12.5 29.3783C6.18184 29.3783 1.04165 23.1775 1.04165 15.5556C1.04165 7.93365 6.18184 1.73279 12.5 1.73279C18.8182 1.73279 23.9583 7.93365 23.9583 15.5556C23.9583 23.1775 18.8182 29.3783 12.5 29.3783Z" fill="#FEFEFE"/>
<path d="M17.4693 15.0272L10.1776 9.37248C10.0179 9.24672 9.81143 9.23994 9.64663 9.34915C9.47876 9.45959 9.375 9.67071 9.375 9.90078V21.2103C9.375 21.4404 9.47876 21.6515 9.64663 21.7619C9.72393 21.8129 9.8104 21.8386 9.89585 21.8386C9.99351 21.8386 10.0922 21.8055 10.1776 21.7386L17.4693 16.0839C17.6178 15.9685 17.7083 15.7691 17.7083 15.5555C17.7083 15.342 17.6178 15.1426 17.4693 15.0272ZM10.4167 20.0592V11.0519L16.2242 15.5555L10.4167 20.0592Z" fill="#FEFEFE"/>
</svg>
